<?xml version="1.0" encoding="UTF-8"?>
<svg id="Capa_1" xmlns="http://www.w3.org/2000/svg" version="1.1" xmlns:xlink="http://www.w3.org/1999/xlink" viewBox="0 0 1104.8 768">
  <!-- Generator: Adobe Illustrator 29.4.0, SVG Export Plug-In . SVG Version: 2.1.0 Build 152)  -->
  <defs>
    <style>
      .st0 {
        fill: url(#Degradado_sin_nombre_6);
      }

      .st1 {
        fill: url(#Degradado_sin_nombre_5);
      }

      .st2 {
        filter: url(#drop-shadow-1);
      }

      .st2, .st3, .st4, .st5, .st6, .st7 {
        fill: #222647;
      }

      .st3 {
        filter: url(#drop-shadow-4);
      }

      .st4 {
        filter: url(#drop-shadow-3);
      }

      .st8 {
        opacity: .4;
      }

      .st8, .st9 {
        fill: #29abe2;
      }

      .st10 {
        fill: #fff;
      }

      .st10, .st9 {
        opacity: .6;
      }

      .st11 {
        fill: #211d33;
      }

      .st12 {
        filter: url(#drop-shadow-6);
      }

      .st5 {
        filter: url(#drop-shadow-5);
      }

      .st13 {
        fill: url(#Degradado_sin_nombre_4);
      }

      .st6 {
        stroke: #fff;
        stroke-miterlimit: 10;
        stroke-width: 3px;
      }

      .st14 {
        fill-rule: evenodd;
        opacity: .8;
      }

      .st15 {
        fill: url(#Degradado_sin_nombre_2);
      }

      .st16 {
        fill: #4ad8ff;
        opacity: .7;
      }

      .st17 {
        fill: #0071bc;
        opacity: .4;
      }

      .st18 {
        fill: url(#Degradado_sin_nombre_3);
      }

      .st19 {
        fill: #0078d4;
      }

      .st20 {
        fill: #b3b3b3;
        opacity: .8;
      }

      .st21 {
        fill: #00193f;
      }

      .st22 {
        fill: #fefefe;
      }

      .st7 {
        filter: url(#drop-shadow-2);
      }

      .st23 {
        fill: #2ad8ff;
        opacity: .6;
      }
    </style>
    <filter id="drop-shadow-1" x="143.2" y="139" width="316" height="207" filterUnits="userSpaceOnUse">
      <feOffset dx="7" dy="7"/>
      <feGaussianBlur result="blur" stdDeviation="5"/>
      <feFlood flood-color="#000" flood-opacity=".8"/>
      <feComposite in2="blur" operator="in"/>
      <feComposite in="SourceGraphic"/>
    </filter>
    <filter id="drop-shadow-2" x="799.2" y="115" width="230" height="154" filterUnits="userSpaceOnUse">
      <feOffset dx="7" dy="7"/>
      <feGaussianBlur result="blur1" stdDeviation="5"/>
      <feFlood flood-color="#000" flood-opacity=".8"/>
      <feComposite in2="blur1" operator="in"/>
      <feComposite in="SourceGraphic"/>
    </filter>
    <filter id="drop-shadow-3" x="532.2" y="177" width="254" height="178" filterUnits="userSpaceOnUse">
      <feOffset dx="7" dy="7"/>
      <feGaussianBlur result="blur2" stdDeviation="5"/>
      <feFlood flood-color="#000" flood-opacity=".8"/>
      <feComposite in2="blur2" operator="in"/>
      <feComposite in="SourceGraphic"/>
    </filter>
    <filter id="drop-shadow-4" x="108.2" y="397" width="433" height="278" filterUnits="userSpaceOnUse">
      <feOffset dx="7" dy="7"/>
      <feGaussianBlur result="blur3" stdDeviation="5"/>
      <feFlood flood-color="#000" flood-opacity=".8"/>
      <feComposite in2="blur3" operator="in"/>
      <feComposite in="SourceGraphic"/>
    </filter>
    <filter id="drop-shadow-5" x="593.2" y="404" width="410" height="264" filterUnits="userSpaceOnUse">
      <feOffset dx="7" dy="7"/>
      <feGaussianBlur result="blur4" stdDeviation="5"/>
      <feFlood flood-color="#000" flood-opacity=".8"/>
      <feComposite in2="blur4" operator="in"/>
      <feComposite in="SourceGraphic"/>
    </filter>
    <radialGradient id="Degradado_sin_nombre_4" data-name="Degradado sin nombre 4" cx="110" cy="35.3" fx="110" fy="35.3" r="22.9" gradientTransform="translate(685.5 273) scale(2.1 -2.1)" gradientUnits="userSpaceOnUse">
      <stop offset=".4" stop-color="#2ebbff"/>
      <stop offset="1" stop-color="#037cd6"/>
    </radialGradient>
    <radialGradient id="Degradado_sin_nombre_5" data-name="Degradado sin nombre 5" cx="107.3" cy="17.9" fx="107.3" fy="17.9" r="12.2" gradientTransform="translate(685.5 273) scale(2.1 -2.1)" gradientUnits="userSpaceOnUse">
      <stop offset="0" stop-color="#6e757b"/>
      <stop offset="1" stop-color="#4a4e52"/>
    </radialGradient>
    <linearGradient id="Degradado_sin_nombre_6" data-name="Degradado sin nombre 6" x1="-1526.7" y1="1007.5" x2="-1538.6" y2="1042.5" gradientTransform="translate(5246.6 -3107) scale(3.3)" gradientUnits="userSpaceOnUse">
      <stop offset="0" stop-color="#114a8b"/>
      <stop offset="1" stop-color="#0669bc"/>
    </linearGradient>
    <linearGradient id="Degradado_sin_nombre_2" data-name="Degradado sin nombre 2" x1="-1542.1" y1="1020" x2="-1544.8" y2="1020.9" gradientTransform="translate(5246.6 -3107) scale(3.3)" gradientUnits="userSpaceOnUse">
      <stop offset="0" stop-color="#000" stop-opacity=".3"/>
      <stop offset="0" stop-color="#000" stop-opacity=".2"/>
      <stop offset=".3" stop-color="#000" stop-opacity=".1"/>
      <stop offset=".6" stop-color="#000" stop-opacity="0"/>
      <stop offset="1" stop-color="#000" stop-opacity="0"/>
    </linearGradient>
    <linearGradient id="Degradado_sin_nombre_3" data-name="Degradado sin nombre 3" x1="-1522.8" y1="991.5" x2="-1509.7" y2="1026.1" gradientTransform="translate(5246.6 -3107) scale(3.3)" gradientUnits="userSpaceOnUse">
      <stop offset="0" stop-color="#3ccbf4"/>
      <stop offset="1" stop-color="#2892df"/>
    </linearGradient>
    <filter id="drop-shadow-6" x="834.2" y="476" width="127" height="106" filterUnits="userSpaceOnUse">
      <feOffset dx="7" dy="7"/>
      <feGaussianBlur result="blur5" stdDeviation="5"/>
      <feFlood flood-color="#000" flood-opacity=".8"/>
      <feComposite in2="blur5" operator="in"/>
      <feComposite in="SourceGraphic"/>
    </filter>
  </defs>
  <g id="Capa_11">
    <path class="st21" d="M35.3,380c29.2-144.3,125.9-232.9,142.6-247.9,32-28.5,91.1-80.1,183.8-99.8,127.4-27.3,231.6,23.7,269.4,42.8,85.8,43.5,65.3,67.9,183.8,148.1,113.8,77,159.9,72.9,214.1,144.5,18.6,24.6,60.9,80.5,55.3,153.4-6.7,86-75.8,140.9-98.1,158.8-102.7,81.8-228.3,73.1-383.5,62.5,0,0-199.5-13.7-421-117.8-69.1-32.5-127-67.4-148.1-130.3-13.1-38.8-6.7-72.3,1.8-114.1h0Z"/>
  </g>
  <rect class="st11" x="57.8" y="91.9" width="995" height="607.3" rx="36.6" ry="36.6"/>
  <rect class="st2" x="151.7" y="147.8" width="285" height="175.3" rx="12" ry="12"/>
  <rect class="st7" x="807.9" y="123.3" width="198.9" height="123.3" rx="12" ry="12"/>
  <rect class="st4" x="540.6" y="185" width="223.1" height="147.8" rx="12" ry="12"/>
  <rect class="st3" x="116.3" y="405.1" width="402" height="247.2" rx="12" ry="12"/>
  <rect class="st5" x="601.7" y="412" width="379.4" height="233.3" rx="12" ry="12"/>
  <g>
    <circle class="st13" cx="914.2" cy="181.3" r="47.7"/>
    <path class="st1" d="M926.8,218.8h-25.1v5.1c0,7,5.5,12.5,12.5,12.5s12.5-5.5,12.5-12.5v-5.1h.1Z"/>
    <path class="st22" d="M939.3,181.3c0-13.8-11.3-25.1-25.1-25.1s-25.1,11.3-25.1,25.1,12.5,22.6,12.5,35.1v2.5h25.1v-2.5c0-12.5,12.5-22.6,12.5-35.1h.1Z"/>
  </g>
  <g>
    <path class="st0" d="M206.5,174.8h37.2l-38.5,114.2c-.8,2.4-3.1,4.1-5.6,4.1h-28.9c-3.2,0-5.9-2.6-5.9-5.9s0-1.3.4-1.9l36-106.4c.8-2.4,3.1-4.1,5.6-4.1h-.2Z"/>
    <path class="st19" d="M260.4,251.5h-58.9c-1.6,0-2.8,1.2-2.8,2.8s.4,1.4.8,2l37.9,35.4c1.1,1.1,2.5,1.6,4.1,1.6h33.3l-14.5-41.6h0Z"/>
    <path class="st15" d="M206.5,174.8c-2.5,0-4.8,1.7-5.6,4.1l-35.9,106.2c-1.1,3.1.5,6.5,3.6,7.6.6.2,1.3.4,2,.4h29.6c2.3-.4,4.1-2,4.9-4.1l7.2-21.1,25.5,23.9c1.1.8,2.4,1.3,3.8,1.4h33.2l-14.6-41.6h-42.4l26-76.6h-37.4Z"/>
    <path class="st18" d="M253.8,178.9c-.8-2.4-3.1-4.1-5.6-4.1h-41.4c2.5,0,4.8,1.7,5.6,4.1l36,106.4c1.1,3.1-.6,6.5-3.7,7.4-.6.2-1.2.4-1.9.4h41.4c3.2,0,5.9-2.6,5.9-5.9s0-1.3-.4-1.9l-36-106.4h.1Z"/>
  </g>
  <g class="st12">
    <path class="st8" d="M874.6,557.3l-10.4-10.1c-2.8-2.7-2.8-7.1,0-9.8l51.7-50.5c2.8-2.7,7.3-2.7,10,0l10.4,10.1c2.8,2.7,2.8,7.1,0,9.8l-51.7,50.5c-2.8,2.7-7.3,2.7-10,0Z"/>
    <path class="st17" d="M844.8,518.3l10.4-10.1c2.8-2.7,7.3-2.7,10,0l34.9,34.1-15.4,15c-2.8,2.7-7.3,2.7-10,0l-29.9-29.2c-2.8-2.7-2.8-7.1,0-9.8Z"/>
  </g>
  <g>
    <ellipse class="st20" cx="652.1" cy="258.9" rx="45.3" ry="46.7"/>
    <path class="st14" d="M629.6,239.6c.7-.7,2-.7,2.7,0l17.9,17.9c.7.7.7,2,0,2.7l-17.9,17.9c-.8.7-2,.7-2.7,0-.7-.7-.7-1.9,0-2.6l16.6-16.6-16.6-16.6c-.7-.7-.7-2,0-2.7M645.1,276.8c0-1.1.9-1.9,1.9-1.9h26.2c1.1,0,1.9.9,1.9,1.9s-.9,1.9-1.9,1.9h-26.2c-1.1,0-1.9-.9-1.9-1.9"/>
  </g>
  <g>
    <path class="st16" d="M703,573.4l-52.9-40.3c-4.8-3.7-4.3-11,.9-14l58.4-33.1c2.9-1.7,6.5-1.4,9.2.6l51.7,38.7c4.8,3.6,4.4,10.8-.7,13.9l-57.2,34.7c-3,1.8-6.7,1.6-9.5-.5Z"/>
    <path class="st23" d="M703,594.6l-52.9-40.3c-4.8-3.7-4.3-11,.9-14l58.4-33.1c2.9-1.7,6.5-1.4,9.2.6l51.7,38.7c4.8,3.6,4.4,10.8-.7,13.9l-57.2,34.7c-3,1.8-6.7,1.6-9.5-.5Z"/>
    <path class="st23" d="M703,549.5l-52.9-40.3c-4.8-3.7-4.3-11,.9-14l58.4-33.1c2.9-1.7,6.5-1.4,9.2.6l51.7,38.7c4.8,3.6,4.4,10.8-.7,13.9l-57.2,34.7c-3,1.8-6.7,1.6-9.5-.5Z"/>
  </g>
  <path class="st6" d="M119.6,611.9c4-13.2,9.5-27.9,15-27.5,5,.4,6,13.3,11,13.8,9.2.8,14.1-42.8,28.3-44.5,12.2-1.4,19,29.5,32.3,29.1,18.3-.5,22.8-59.7,41.7-61.4,18.1-1.6,28.7,51.1,47.2,50.4,23.6-1,31.9-87.4,51.1-87.3,17.4,0,25.1,70.2,41.7,70,18.1-.2,25.9-83.2,44.9-83.4,15.6-.2,20.9,55.8,40.1,57.6,15.1,1.4,31.3-31.3,45.3-69.4"/>
  <path class="st9" d="M410.6,229.8c0-23-18.7-41.7-41.7-41.7v41.7h41.7Z"/>
  <path class="st10" d="M360.6,196.4c-23,0-41.7,18.7-41.7,41.7s18.7,41.7,41.7,41.7,41.7-18.7,41.7-41.7h-41.7v-41.7Z"/>
</svg>