<?xml version="1.0" encoding="UTF-8"?>
<svg id="Capa_1" xmlns="http://www.w3.org/2000/svg" version="1.1" xmlns:xlink="http://www.w3.org/1999/xlink" viewBox="0 0 1486.1 768">
  <!-- Generator: Adobe Illustrator 29.4.0, SVG Export Plug-In . SVG Version: 2.1.0 Build 152)  -->
  <defs>
    <style>
      .st0 {
        filter: url(#drop-shadow-7);
        stroke: #0071bc;
      }

      .st0, .st1, .st2, .st3, .st4, .st5, .st6 {
        fill: none;
        stroke-miterlimit: 10;
      }

      .st0, .st1, .st2, .st4, .st5, .st6 {
        stroke-width: 6px;
      }

      .st0, .st3, .st4, .st5 {
        stroke-linecap: round;
      }

      .st7 {
        fill: #00c2df;
      }

      .st8 {
        opacity: .5;
      }

      .st8, .st9, .st10 {
        fill: #b3b3b3;
      }

      .st11 {
        filter: url(#drop-shadow-14);
      }

      .st12 {
        opacity: .4;
      }

      .st12, .st13 {
        fill: #29abe2;
      }

      .st1 {
        filter: url(#drop-shadow-3);
      }

      .st1, .st2, .st6 {
        opacity: .6;
        stroke: gray;
      }

      .st14 {
        filter: url(#drop-shadow-1);
      }

      .st14, .st15 {
        fill: #222747;
      }

      .st16 {
        fill: #2aecff;
        filter: url(#drop-shadow-11);
        opacity: .8;
      }

      .st9, .st17 {
        opacity: .4;
      }

      .st18 {
        fill-rule: evenodd;
        opacity: .8;
      }

      .st19 {
        filter: url(#drop-shadow-13);
      }

      .st2 {
        filter: url(#drop-shadow-5);
      }

      .st20 {
        opacity: .4;
      }

      .st21 {
        fill: url(#Degradado_sin_nombre_21);
      }

      .st21, .st22 {
        fill-opacity: .2;
      }

      .st3 {
        stroke: #3fd6ff;
        stroke-width: 18px;
      }

      .st17 {
        fill: #0071bc;
      }

      .st23 {
        fill: url(#Degradado_sin_nombre_3);
      }

      .st24 {
        fill: gray;
      }

      .st24, .st25 {
        opacity: .6;
      }

      .st26 {
        filter: url(#drop-shadow-12);
      }

      .st22 {
        fill: url(#Degradado_sin_nombre_2);
      }

      .st4 {
        filter: url(#drop-shadow-8);
        stroke: #29abe2;
      }

      .st27 {
        fill: #4ad8ff;
        opacity: .7;
      }

      .st28 {
        fill: #3ecf8e;
      }

      .st15 {
        filter: url(#drop-shadow-2);
      }

      .st13 {
        filter: url(#drop-shadow-10);
      }

      .st13, .st10 {
        opacity: .3;
      }

      .st25 {
        fill: #2ad8ff;
      }

      .st29 {
        filter: url(#drop-shadow-15);
      }

      .st30 {
        fill: url(#Degradado_sin_nombre_31);
      }

      .st5 {
        filter: url(#drop-shadow-6);
        opacity: .5;
        stroke: aqua;
      }

      .st10 {
        filter: url(#drop-shadow-9);
      }

      .st6 {
        filter: url(#drop-shadow-4);
      }
    </style>
    <filter id="drop-shadow-1" x="24" y="249" width="900" height="511" filterUnits="userSpaceOnUse">
      <feOffset dx="7" dy="7"/>
      <feGaussianBlur result="blur" stdDeviation="5"/>
      <feFlood flood-color="#000" flood-opacity=".8"/>
      <feComposite in2="blur" operator="in"/>
      <feComposite in="SourceGraphic"/>
    </filter>
    <filter id="drop-shadow-2" x="796" y="7" width="684" height="391" filterUnits="userSpaceOnUse">
      <feOffset dx="7" dy="7"/>
      <feGaussianBlur result="blur1" stdDeviation="5"/>
      <feFlood flood-color="#000" flood-opacity=".8"/>
      <feComposite in2="blur1" operator="in"/>
      <feComposite in="SourceGraphic"/>
    </filter>
    <linearGradient id="Degradado_sin_nombre_3" data-name="Degradado sin nombre 3" x1="468.3" y1="676.4" x2="497.4" y2="664.3" gradientTransform="translate(288.8 1452.7) scale(1.8 -1.8)" gradientUnits="userSpaceOnUse">
      <stop offset="0" stop-color="#249361"/>
      <stop offset="1" stop-color="#3ecf8e"/>
    </linearGradient>
    <linearGradient id="Degradado_sin_nombre_2" data-name="Degradado sin nombre 2" x1="469.7" y1="706.5" x2="483" y2="681.6" gradientTransform="translate(288.8 1452.7) scale(1.8 -1.8)" gradientUnits="userSpaceOnUse">
      <stop offset="0" stop-color="#000"/>
      <stop offset="1" stop-color="#000" stop-opacity="0"/>
    </linearGradient>
    <linearGradient id="Degradado_sin_nombre_31" data-name="Degradado sin nombre 3" x1="-74.3" y1="537.9" x2="-63.4" y2="533.3" xlink:href="#Degradado_sin_nombre_3"/>
    <linearGradient id="Degradado_sin_nombre_21" data-name="Degradado sin nombre 2" x1="-73.8" y1="549.2" x2="-68.8" y2="539.8" xlink:href="#Degradado_sin_nombre_2"/>
    <filter id="drop-shadow-3" x="234" y="421" width="147" height="148" filterUnits="userSpaceOnUse">
      <feOffset dx="7" dy="7"/>
      <feGaussianBlur result="blur2" stdDeviation="5"/>
      <feFlood flood-color="#000" flood-opacity=".8"/>
      <feComposite in2="blur2" operator="in"/>
      <feComposite in="SourceGraphic"/>
    </filter>
    <filter id="drop-shadow-4" x="91" y="421" width="148" height="148" filterUnits="userSpaceOnUse">
      <feOffset dx="7" dy="7"/>
      <feGaussianBlur result="blur3" stdDeviation="5"/>
      <feFlood flood-color="#000" flood-opacity=".8"/>
      <feComposite in2="blur3" operator="in"/>
      <feComposite in="SourceGraphic"/>
    </filter>
    <filter id="drop-shadow-5" x="365" y="421" width="148" height="148" filterUnits="userSpaceOnUse">
      <feOffset dx="7" dy="7"/>
      <feGaussianBlur result="blur4" stdDeviation="5"/>
      <feFlood flood-color="#000" flood-opacity=".8"/>
      <feComposite in2="blur4" operator="in"/>
      <feComposite in="SourceGraphic"/>
    </filter>
    <filter id="drop-shadow-6" x="91" y="421" width="148" height="140" filterUnits="userSpaceOnUse">
      <feOffset dx="7" dy="7"/>
      <feGaussianBlur result="blur5" stdDeviation="5"/>
      <feFlood flood-color="#000" flood-opacity=".8"/>
      <feComposite in2="blur5" operator="in"/>
      <feComposite in="SourceGraphic"/>
    </filter>
    <filter id="drop-shadow-7" x="234" y="421" width="147" height="148" filterUnits="userSpaceOnUse">
      <feOffset dx="7" dy="7"/>
      <feGaussianBlur result="blur6" stdDeviation="5"/>
      <feFlood flood-color="#000" flood-opacity=".8"/>
      <feComposite in2="blur6" operator="in"/>
      <feComposite in="SourceGraphic"/>
    </filter>
    <filter id="drop-shadow-8" x="365" y="421" width="148" height="148" filterUnits="userSpaceOnUse">
      <feOffset dx="7" dy="7"/>
      <feGaussianBlur result="blur7" stdDeviation="5"/>
      <feFlood flood-color="#000" flood-opacity=".8"/>
      <feComposite in2="blur7" operator="in"/>
      <feComposite in="SourceGraphic"/>
    </filter>
    <filter id="drop-shadow-9" x="84" y="592" width="408" height="110" filterUnits="userSpaceOnUse">
      <feOffset dx="7" dy="7"/>
      <feGaussianBlur result="blur8" stdDeviation="5"/>
      <feFlood flood-color="#000" flood-opacity=".8"/>
      <feComposite in2="blur8" operator="in"/>
      <feComposite in="SourceGraphic"/>
    </filter>
    <filter id="drop-shadow-10" x="84" y="592" width="323" height="110" filterUnits="userSpaceOnUse">
      <feOffset dx="7" dy="7"/>
      <feGaussianBlur result="blur9" stdDeviation="5"/>
      <feFlood flood-color="#000" flood-opacity=".8"/>
      <feComposite in2="blur9" operator="in"/>
      <feComposite in="SourceGraphic"/>
    </filter>
    <filter id="drop-shadow-11" x="272" y="450" width="74" height="85" filterUnits="userSpaceOnUse">
      <feOffset dx="7" dy="7"/>
      <feGaussianBlur result="blur10" stdDeviation="5"/>
      <feFlood flood-color="#000" flood-opacity=".8"/>
      <feComposite in2="blur10" operator="in"/>
      <feComposite in="SourceGraphic"/>
    </filter>
    <filter id="drop-shadow-12" x="946" y="335" width="211" height="171" filterUnits="userSpaceOnUse">
      <feOffset dx="7" dy="7"/>
      <feGaussianBlur result="blur11" stdDeviation="5"/>
      <feFlood flood-color="#000" flood-opacity=".8"/>
      <feComposite in2="blur11" operator="in"/>
      <feComposite in="SourceGraphic"/>
    </filter>
    <filter id="drop-shadow-13" x="119" y="364" width="91" height="79" filterUnits="userSpaceOnUse">
      <feOffset dx="7" dy="7"/>
      <feGaussianBlur result="blur12" stdDeviation="5"/>
      <feFlood flood-color="#000" flood-opacity=".8"/>
      <feComposite in2="blur12" operator="in"/>
      <feComposite in="SourceGraphic"/>
    </filter>
    <filter id="drop-shadow-14" x="263.3" y="361.7" width="91" height="79" filterUnits="userSpaceOnUse">
      <feOffset dx="7" dy="7"/>
      <feGaussianBlur result="blur13" stdDeviation="5"/>
      <feFlood flood-color="#000" flood-opacity=".8"/>
      <feComposite in2="blur13" operator="in"/>
      <feComposite in="SourceGraphic"/>
    </filter>
    <filter id="drop-shadow-15" x="398" y="358.8" width="91" height="79" filterUnits="userSpaceOnUse">
      <feOffset dx="7" dy="7"/>
      <feGaussianBlur result="blur14" stdDeviation="5"/>
      <feFlood flood-color="#000" flood-opacity=".8"/>
      <feComposite in2="blur14" operator="in"/>
      <feComposite in="SourceGraphic"/>
    </filter>
  </defs>
  <rect class="st14" x="32.8" y="257.6" width="868.4" height="479.7" rx="22.9" ry="22.9"/>
  <rect class="st15" x="804.5" y="15" width="652.9" height="360.7" rx="17.2" ry="17.2"/>
  <g>
    <path class="st23" d="M1142.9,304.3c-3.7,4.7-11.2,2.1-11.3-3.8l-1.3-86.9h58.4c10.6,0,16.5,12.2,9.9,20.5l-55.7,70.2Z"/>
    <path class="st22" d="M1142.9,304.3c-3.7,4.7-11.2,2.1-11.3-3.8l-1.3-86.9h58.4c10.6,0,16.5,12.2,9.9,20.5l-55.7,70.2Z"/>
    <path class="st28" d="M1119.1,164.5c3.7-4.7,11.2-2.1,11.3,3.8l.6,86.9h-57.7c-10.6,0-16.5-12.2-9.9-20.5l55.7-70.2Z"/>
  </g>
  <g>
    <path class="st30" d="M162.5,514.4c-1.4,1.8-4.2.8-4.3-1.4l-.5-32.8h22c4,0,6.2,4.6,3.7,7.7l-21,26.5Z"/>
    <path class="st21" d="M162.5,514.4c-1.4,1.8-4.2.8-4.3-1.4l-.5-32.8h22c4,0,6.2,4.6,3.7,7.7l-21,26.5Z"/>
    <path class="st28" d="M153.5,461.6c1.4-1.8,4.2-.8,4.3,1.4l.2,32.8h-21.8c-4,0-6.2-4.6-3.7-7.7l21-26.5Z"/>
  </g>
  <g class="st20">
    <path class="st3" d="M915.4,303.3c-1.8-137.3,132.4-242.9,265.5-209.9,48.3,12,90.9,39.2,121.3,78.9,29,37.8,44.1,83.4,44.6,131"/>
  </g>
  <path class="st3" d="M915.4,303.3c-1.8-137.3,132.4-242.9,265.5-209.9,48.3,12,90.9,39.2,121.3,78.9"/>
  <circle class="st1" cx="300.3" cy="488" r="55.2"/>
  <circle class="st6" cx="158" cy="488" r="55.2"/>
  <circle class="st2" cx="431.9" cy="488" r="55.2"/>
  <path class="st5" d="M130.2,535.7c-16.4-9.6-27.4-27.4-27.4-47.7,0-30.5,24.7-55.2,55.2-55.2s55.2,24.7,55.2,55.2"/>
  <path class="st0" d="M355.5,488c0,30.5-24.7,55.2-55.2,55.2s-55.2-24.7-55.2-55.2,24.7-55.2,55.2-55.2.9,0,1.4,0"/>
  <path class="st4" d="M487.2,488c0,30.5-24.7,55.2-55.2,55.2s-55.2-24.7-55.2-55.2,24.7-55.2,55.2-55.2,13.2,1.2,19.1,3.4"/>
  <rect class="st10" x="92.5" y="600.8" width="377" height="78.6" rx="39.3" ry="39.3"/>
  <rect class="st13" x="92.5" y="600.8" width="291.7" height="78.6" rx="39.3" ry="39.3"/>
  <path class="st27" d="M668.3,617.5l-107.3-81.8c-9.7-7.4-8.7-22.4,1.9-28.4l118.4-67.2c5.9-3.4,13.2-2.9,18.7,1.2l104.9,78.6c9.7,7.3,8.9,22-1.4,28.2l-116,70.4c-6,3.6-13.6,3.2-19.2-1Z"/>
  <path class="st25" d="M668.3,660.4l-107.3-81.8c-9.7-7.4-8.7-22.4,1.9-28.4l118.4-67.2c5.9-3.4,13.2-2.9,18.7,1.2l104.9,78.6c9.7,7.3,8.9,22-1.4,28.2l-116,70.4c-6,3.6-13.6,3.2-19.2-1Z"/>
  <path class="st25" d="M668.3,568.9l-107.3-81.8c-9.7-7.4-8.7-22.4,1.9-28.4l118.4-67.2c5.9-3.4,13.2-2.9,18.7,1.2l104.9,78.6c9.7,7.3,8.9,22-1.4,28.2l-116,70.4c-6,3.6-13.6,3.2-19.2-1Z"/>
  <circle class="st7" cx="1303.1" cy="175.7" r="14"/>
  <path class="st16" d="M307,458.9h-21.1c-2.7,0-4.9,2.2-4.9,4.9v43.9c0,2.6,2.1,4.8,4.8,4.8h32.4c3.2,0,5.7-2.6,5.7-5.7v-29.3c0-.1,0-.2-.1-.3l-16.4-18.2c0-.1-.2-.2-.4-.2Z"/>
  <path class="st8" d="M301,477.9h0c0-1.3-1-2.3-2.3-2.3h-21.3c-1.3,0-2.3,1-2.3,2.3v17.6s0,0,0,0v19.4c0,1.3,1,2.3,2.3,2.3h49.1c1.3,0,2.3-1,2.3-2.3v-32.4c0-1.3-1-2.3-2.3-2.3h-23.3c-1.3,0-2.3-1-2.3-2.3Z"/>
  <path class="st24" d="M406,471.3c0-1,.8-1.8,1.8-2,8-1,19.6-8.1,23-10.3.6-.4,1.4-.4,2.1,0,3.5,2.2,15.1,9.3,23,10.3,1,.1,1.8,1,1.8,2v17.6c0,24.1-25.9,32.4-25.9,32.4,0,0-25.9-8.3-25.9-32.4v-17.6Z"/>
  <ellipse class="st9" cx="977.1" cy="519.6" rx="85.6" ry="88.2"/>
  <g class="st26">
    <path class="st12" d="M1014.4,480.1l-19.6-19.1c-5.2-5.1-5.2-13.4,0-18.5l97.7-95.3c5.2-5.1,13.7-5.1,19,0l19.6,19.1c5.2,5.1,5.2,13.4,0,18.5l-97.7,95.3c-5.2,5.1-13.7,5.1-19,0Z"/>
    <path class="st17" d="M958,406.4l19.6-19.1c5.2-5.1,13.7-5.1,19,0l65.9,64.4-29.1,28.4c-5.2,5.1-13.7,5.1-19,0l-56.4-55.1c-5.2-5.1-5.2-13.4,0-18.5Z"/>
  </g>
  <g class="st19">
    <rect class="st12" x="154.8" y="368.6" width="18.3" height="55.4" rx="4.8" ry="4.8" transform="translate(328.3 .2) rotate(45)"/>
    <path class="st17" d="M135.5,385.3h13.5c2.6,0,4.8,2.1,4.8,4.8v26.3c0,2.6-2.1,4.8-4.8,4.8h-8.8c-2.6,0-4.8-2.1-4.8-4.8v-31h0Z" transform="translate(532 586.1) rotate(135)"/>
  </g>
  <g class="st11">
    <rect class="st12" x="299" y="366.3" width="18.3" height="55.4" rx="4.8" ry="4.8" transform="translate(369 -102.5) rotate(45)"/>
    <path class="st17" d="M279.8,382.9h13.5c2.6,0,4.8,2.1,4.8,4.8v26.3c0,2.6-2.1,4.8-4.8,4.8h-8.8c-2.6,0-4.8-2.1-4.8-4.8v-31h0Z" transform="translate(776.6 480.1) rotate(135)"/>
  </g>
  <g class="st29">
    <rect class="st12" x="433.8" y="363.4" width="18.3" height="55.4" rx="4.8" ry="4.8" transform="translate(406.4 -198.7) rotate(45)"/>
    <path class="st17" d="M414.5,380.1h13.5c2.6,0,4.8,2.1,4.8,4.8v26.3c0,2.6-2.1,4.8-4.8,4.8h-8.8c-2.6,0-4.8-2.1-4.8-4.8v-31h0Z" transform="translate(1004.6 380) rotate(135)"/>
  </g>
  <path class="st18" d="M934.6,483.2c1.4-1.4,3.7-1.4,5.1,0l33.9,33.9c1.4,1.4,1.4,3.7,0,5.1l-33.9,33.9c-1.5,1.4-3.8,1.3-5.1-.2-1.3-1.4-1.3-3.6,0-4.9l31.3-31.3-31.3-31.3c-1.4-1.4-1.4-3.7,0-5.1M963.8,553.5c0-2,1.6-3.6,3.6-3.6h49.6c2,0,3.6,1.6,3.6,3.6s-1.6,3.6-3.6,3.6h-49.6c-2,0-3.6-1.6-3.6-3.6"/>
</svg>