<?xml version="1.0" encoding="UTF-8"?>
<svg id="Capa_1" xmlns="http://www.w3.org/2000/svg" version="1.1" xmlns:xlink="http://www.w3.org/1999/xlink" viewBox="0 0 1030.43 681.64">
  <!-- Generator: Adobe Illustrator 29.4.0, SVG Export Plug-In . SVG Version: 2.1.0 Build 152)  -->
  <defs>
    <style>
      .st0 {
        fill: url(#Degradado_sin_nombre_2);
      }
    </style>
    <linearGradient id="Degradado_sin_nombre_2" data-name="Degradado sin nombre 2" x1="167.97" y1="154.7" x2="890.96" y2="154.7" gradientTransform="translate(0 715.15) scale(1 -1)" gradientUnits="userSpaceOnUse">
      <stop offset="0" stop-color="#cce0f4"/>
      <stop offset=".04" stop-color="#c2dff2"/>
      <stop offset=".09" stop-color="#a9dfef"/>
      <stop offset=".17" stop-color="#7fdee9"/>
      <stop offset=".26" stop-color="#45dce1"/>
      <stop offset=".35" stop-color="#00dbd8"/>
      <stop offset=".74" stop-color="#0075be"/>
      <stop offset=".99" stop-color="#9800f4"/>
    </linearGradient>
  </defs>
  <path d="M906.02,666.6c-4.97-2.85-9.99-5.62-15.06-8.34-42.62-59.92-96.75-109.02-158.61-143.03l-134.02-383.74h-137.71s-134.02,383.74-134.02,383.74c-61.86,34.01-116,83.12-158.63,143.04-5.21,2.79-10.37,5.65-15.48,8.58l12.11-27.38L382.15,16.55h294.66l217.54,622.92,11.67,27.13h0Z"/>
  <path class="st0" d="M890.96,658.26c-32.73-17.61-67.44-32.87-103.78-45.56-79.27-27.64-166.35-42.91-257.7-42.91s-175.13,14.7-253.18,41.36c-38,12.98-74.23,28.79-108.33,47.12,42.63-59.92,96.76-109.03,158.63-143.04,61.27-33.7,130.11-52.61,202.87-52.61s141.61,18.91,202.87,52.61c61.85,34.01,115.99,83.1,158.61,143.03h.01Z"/>
  <g>
    <path d="M935.41,195.62c-21.4,13.64-64.78,36.68-103.06,57-17.26,9.17-33.57,17.83-46.28,24.79-14.91,8.16-29.74,16-45.12,23.81-28.9,14.69-59.76,29.32-96.91,45.98-6.16,2.76-12.5,5.58-19.03,8.47-97.96,43.29-195.11,81.61-285.18,112.68-44.31,15.3-86.91,28.83-127.05,40.34-15.57,4.46-30.76,8.62-45.54,12.46-29.68,7.71-66.6,17.3-96.72,23.49-21.96,4.51-36.07,6.42-45.18,6.42-10.54,0-14.37-2.55-15.87-6.56-2.23-5.99,2.64-12.48,16.83-22.41,10.22-7.15,25.65-16.28,45.89-27.14,32.84-17.63,79.69-40.54,139.24-68.11l35.47-15.86-9.99,28.59-27.06,13.26c-42.94,22.26-58.12,32.71-63.46,37.41,5.08-.15,16.04-1.54,39.41-7.31,13.35-3.7,26.67-7.5,39.95-11.4,42.79-12.53,85.23-26.05,127.1-40.46,41.31-14.22,82.05-29.31,122.02-45.21,15.96-6.35,30.79-12.15,45.14-17.75,37.02-14.46,70.8-27.66,115-46.76,24.71-10.67,52.69-23.2,86.3-38.83,3.63-1.69,7.39-3.45,11.27-5.28,60.9-28.69,149.93-73.34,194.32-96.36,4.13-2.14,8.99-.72,11.31,3.31,2.32,4.02,1.12,8.94-2.8,11.43Z"/>
    <path d="M971.86,181.17l30.46-20.47c3.14-2.11,5.67-5,7.35-8.39l4.85-9.78c1.02-2.06,1.5-4.38,1.2-6.66-.17-1.29-.59-2.71-1.44-4.12-.99-1.32-2.14-2.24-3.28-2.89-2-1.14-4.33-1.58-6.62-1.41l-10.89.79c-3.77.27-7.41,1.53-10.55,3.64l-30.37,20.41-39.63-10.77c3.17,1.68,19.15,10.51,34.29,32.13,16.9,24.13,19.33,45.03,19.65,48.13l4.98-40.6Z"/>
  </g>
</svg>