<?xml version="1.0" encoding="UTF-8"?>
<svg id="Capa_1" xmlns="http://www.w3.org/2000/svg" version="1.1" xmlns:xlink="http://www.w3.org/1999/xlink" viewBox="0 0 1032.2 653.31">
  <!-- Generator: Adobe Illustrator 29.3.1, SVG Export Plug-In . SVG Version: 2.1.0 Build 151)  -->
  <defs>
    <style>
      .st0 {
        fill: #fff;
      }

      .st1 {
        fill: url(#Degradado_sin_nombre_308);
      }

      .st2 {
        fill: #fafafa;
      }
    </style>
    <linearGradient id="Degradado_sin_nombre_308" data-name="Degradado sin nombre 308" x1="169.6" y1="535.23" x2="858.18" y2="535.23" gradientUnits="userSpaceOnUse">
      <stop offset="0" stop-color="#cce0f4"/>
      <stop offset=".04" stop-color="#c2dff2"/>
      <stop offset=".09" stop-color="#a9dfef"/>
      <stop offset=".17" stop-color="#7fdee9"/>
      <stop offset=".26" stop-color="#45dce1"/>
      <stop offset=".35" stop-color="#00dbd8"/>
      <stop offset=".74" stop-color="#0075be"/>
      <stop offset=".99" stop-color="#9800f4"/>
    </linearGradient>
  </defs>
  <g>
    <path class="st0" d="M936.22,162.28c-21.4,13.64-64.78,36.68-103.06,57-17.26,9.17-33.57,17.83-46.28,24.79-14.91,8.16-29.74,16-45.12,23.81-28.9,14.69-59.76,29.32-96.91,45.98-6.16,2.76-12.5,5.58-19.03,8.47-97.96,43.29-195.11,81.61-285.18,112.68-44.31,15.3-86.91,28.83-127.05,40.34-15.57,4.46-30.76,8.62-45.54,12.46-29.68,7.71-66.6,17.3-96.72,23.49-21.96,4.51-36.07,6.42-45.18,6.42-10.54,0-14.37-2.55-15.87-6.56-2.23-5.99,2.64-12.48,16.83-22.41,10.22-7.15,25.65-16.28,45.89-27.14,32.84-17.63,79.69-40.54,139.24-68.11l35.47-15.86-9.99,28.59-27.06,13.26c-42.94,22.26-58.12,32.71-63.46,37.41,5.08-.15,16.04-1.54,39.41-7.31,13.35-3.7,26.67-7.5,39.95-11.4,42.79-12.53,85.23-26.05,127.1-40.46,41.31-14.22,82.05-29.31,122.02-45.21,15.96-6.35,30.79-12.15,45.14-17.75,37.02-14.46,70.8-27.66,115-46.76,24.71-10.67,52.69-23.2,86.3-38.83,3.63-1.69,7.39-3.45,11.27-5.28,60.9-28.69,149.93-73.34,194.32-96.36,4.13-2.14,8.99-.72,11.31,3.31,2.32,4.02,1.12,8.94-2.8,11.43Z"/>
    <path class="st0" d="M972.66,147.82l30.46-20.47c3.14-2.11,5.67-5,7.35-8.39l4.85-9.78c1.02-2.06,1.5-4.38,1.2-6.66-.17-1.29-.59-2.71-1.44-4.12-.99-1.32-2.14-2.24-3.28-2.89-2-1.14-4.33-1.58-6.62-1.41l-10.89.79c-3.77.27-7.41,1.53-10.55,3.64l-30.37,20.41-39.63-10.77c3.17,1.68,19.15,10.51,34.29,32.13,16.9,24.13,19.33,45.03,19.65,48.13l4.98-40.6Z"/>
  </g>
  <path class="st2" d="M872.52,636.33c-4.73-2.71-9.51-5.35-14.34-7.94-40.59-57.07-92.15-103.83-151.06-136.22l-127.64-365.48h0s-131.16,0-131.16,0h0s-127.64,365.49-127.64,365.49c-58.92,32.39-110.48,79.16-151.08,136.23-4.96,2.66-9.88,5.38-14.74,8.17l11.53-26.08L373.58,17.21h280.64l207.19,593.28,11.11,25.84Z"/>
  <path class="st1" d="M858.18,628.39c-31.17-16.77-64.23-31.31-98.84-43.39-75.5-26.32-158.43-40.87-245.44-40.87s-166.8,14-241.13,39.39c-36.19,12.36-70.7,27.42-103.17,44.88,40.6-57.07,92.16-103.84,151.08-136.23,58.35-32.1,123.92-50.11,193.22-50.11s134.87,18.01,193.22,50.11c58.91,32.39,110.47,79.15,151.06,136.22Z"/>
</svg>